<svg fill="none" height="33" viewBox="0 0 33 33" width="33" xmlns="http://www.w3.org/2000/svg"><path d="m23.4167 20.6667h-1.4484l-.5133-.495c1.7967-2.09 2.8783-4.8034 2.8783-7.755 0-6.5817-5.335-11.9167-11.9166-11.9167-6.5817 0-11.9167 5.335-11.9167 11.9167 0 6.5816 5.335 11.9166 11.9167 11.9166 2.9516 0 5.665-1.0816 7.755-2.8783l.495.5133v1.4484l9.1666 9.1483 2.7317-2.7317zm-11 0c-4.56503 0-8.25003-3.685-8.25003-8.25 0-4.56503 3.685-8.25003 8.25003-8.25003 4.565 0 8.25 3.685 8.25 8.25003 0 4.565-3.685 8.25-8.25 8.25z" fill="#000"/></svg>